<?xml version="1.0" standalone="no"?>
<!DOCTYPE svg PUBLIC "-//W3C//DTD SVG 20010904//EN"
 "http://www.w3.org/TR/2001/REC-SVG-20010904/DTD/svg10.dtd">
<svg version="1.0" xmlns="http://www.w3.org/2000/svg"
 width="534.000000pt" height="626.000000pt" viewBox="0 0 534.000000 626.000000"
 preserveAspectRatio="xMidYMid meet">
<metadata>
Created by potrace 1.13, written by Peter Selinger 2001-2015
</metadata>
<g transform="translate(0.000000,626.000000) scale(0.100000,-0.100000)"
fill="#000000" stroke="none">
<path d="M2351 6251 c-12 -8 -9 -16 16 -44 17 -19 39 -59 48 -88 20 -59 27
-210 10 -215 -5 -1 -42 35 -81 80 -39 44 -93 98 -120 118 -53 41 -91 51 -79
21 20 -49 17 -103 -6 -103 -6 0 -41 27 -77 61 -37 33 -87 70 -112 81 -56 26
-134 28 -182 5 -39 -18 -120 -102 -145 -150 -24 -47 -38 -19 -38 79 0 90 -7
100 -42 62 -48 -53 -95 -183 -124 -343 -6 -38 -15 -86 -19 -105 l-7 -35 -19
40 c-28 63 -31 172 -5 230 l21 48 -35 -6 c-41 -7 -90 -39 -106 -69 -22 -42
-11 -128 26 -206 l34 -73 -37 8 c-20 4 -68 7 -107 7 -83 0 -145 -25 -251 -101
-114 -83 -140 -93 -242 -93 -103 0 -112 -6 -120 -75 l-5 -45 74 0 c41 0 80 -4
87 -9 13 -8 -7 -48 -94 -188 l-14 -23 -68 48 c-37 27 -87 57 -112 67 -53 21
-146 23 -186 4 -66 -32 -70 -123 -7 -143 16 -5 30 1 56 24 20 17 46 30 62 30
15 0 84 -27 154 -60 70 -32 146 -62 169 -66 38 -6 43 -4 94 42 29 27 55 52 58
55 10 12 174 119 182 119 12 0 10 -9 -18 -69 -37 -78 -97 -164 -129 -185 -15
-10 -75 -26 -132 -37 -128 -23 -187 -51 -222 -103 -23 -35 -26 -51 -29 -148
-3 -75 1 -134 13 -191 10 -45 18 -88 19 -95 1 -9 -41 -13 -179 -15 -177 -2
-181 -2 -228 -30 -71 -42 -84 -90 -44 -165 28 -53 74 -112 87 -112 6 0 10 19
10 43 0 35 6 49 31 73 29 27 34 29 112 27 57 -1 107 -10 162 -27 113 -37 115
-39 53 -65 -87 -36 -100 -44 -145 -87 -58 -55 -58 -84 3 -189 74 -128 72 -210
-7 -255 -57 -31 -150 -30 -222 3 -60 27 -97 61 -97 89 0 26 -15 22 -28 -7 -29
-64 0 -109 94 -145 49 -20 78 -24 174 -24 105 -1 120 2 173 26 76 36 87 62 96
233 4 71 12 140 19 152 6 11 26 30 44 41 45 27 199 75 210 64 4 -4 13 -46 19
-93 13 -109 37 -225 55 -268 8 -18 14 -44 14 -57 0 -21 -5 -24 -35 -24 -41 0
-109 32 -124 57 -16 30 -25 5 -13 -36 10 -32 19 -42 55 -56 23 -9 62 -20 87
-24 44 -6 45 -7 48 -46 10 -114 -46 -224 -199 -391 -116 -127 -152 -184 -153
-240 -1 -66 41 -102 154 -133 47 -13 91 -25 97 -27 18 -5 16 -59 -3 -75 -19
-16 -74 -122 -74 -144 0 -8 13 -29 29 -47 27 -30 34 -33 105 -36 42 -2 76 -7
76 -11 0 -3 -20 -16 -44 -29 -24 -13 -59 -39 -77 -58 -27 -28 -33 -42 -33 -74
1 -38 36 -98 73 -126 13 -10 13 -17 -2 -55 -78 -212 -46 -355 91 -408 59 -22
216 -16 382 14 80 15 198 29 262 32 109 5 120 3 172 -20 72 -33 95 -70 144
-227 22 -69 58 -177 81 -240 149 -407 201 -587 201 -694 0 -75 -2 -77 -174
-271 -64 -72 -116 -133 -116 -137 0 -5 26 -8 58 -8 31 0 179 -5 327 -10 149
-5 497 -16 775 -25 571 -16 987 -30 1428 -46 167 -6 305 -9 307 -7 4 4 -130
183 -269 359 -49 62 -140 180 -260 339 -44 58 -127 168 -186 245 -58 77 -142
187 -186 245 -113 148 -184 260 -237 370 -162 337 -153 569 30 778 l38 43 65
-27 c92 -38 205 -44 279 -14 63 25 92 47 162 127 62 71 112 160 130 232 l13
53 51 -6 c27 -4 92 -10 142 -13 79 -5 93 -4 99 10 3 9 -1 26 -10 39 -39 55 -6
161 98 316 36 53 74 108 84 120 l19 24 25 -31 c35 -40 51 -92 46 -147 -2 -35
0 -44 13 -44 28 0 67 52 74 100 6 41 -11 154 -30 202 -6 14 -1 16 34 11 22 -3
56 -2 76 1 l36 7 -25 29 c-34 41 -49 124 -44 244 3 85 7 101 23 110 11 6 46
36 78 66 99 92 157 222 157 349 0 58 -11 129 -25 169 -3 7 -26 -13 -58 -50
-82 -98 -182 -138 -264 -107 l-28 11 57 49 c79 70 162 173 197 249 26 54 31
77 31 138 0 71 -20 142 -41 142 -5 0 -15 -14 -24 -30 -30 -57 -127 -145 -179
-163 -104 -36 -115 -23 -72 84 51 126 79 242 80 335 1 74 -1 84 -27 117 -34
45 -60 47 -83 8 -45 -76 -158 -94 -294 -47 -40 14 -76 29 -79 32 -8 8 24 30
95 65 60 30 118 39 162 24 35 -11 27 23 -14 60 -23 21 -64 42 -112 58 -69 22
-108 30 -245 52 -34 6 -38 9 -33 28 14 48 17 114 7 140 -11 27 -11 27 -41 12
-19 -10 -49 -15 -78 -13 -40 3 -47 6 -45 23 17 133 -2 221 -53 244 -37 16 -40
14 -40 -24 0 -70 -78 -126 -154 -111 -31 6 -40 16 -80 89 -56 102 -145 194
-225 233 -54 26 -71 29 -165 30 l-105 1 -15 29 c-19 40 -18 98 3 121 25 28 22
33 -25 33 -66 0 -131 -21 -276 -89 -157 -73 -113 -80 -382 55 -231 117 -314
143 -359 115z"/>
</g>
</svg>
